<svg width="512" height="512" viewBox="0 0 512 512" fill="none" xmlns="http://www.w3.org/2000/svg">
<path d="M416 384H160C124.65 384 96 412.65 96 448V480C96 497.67 110.33 512 128 512H448C465.67 512 480 497.67 480 480V448C480 412.65 451.35 384 416 384ZM288 480C270.33 480 256 465.67 256 448C256 430.33 270.33 416 288 416C305.67 416 320 430.33 320 448C320 465.67 305.67 480 288 480ZM328 64H494.54L512 0H48C21.49 0 0 21.49 0 48V208C0 234.51 21.49 256 48 256H151.27L160 352H416L433.46 288H328C323.58 288 320 284.42 320 280V264C320 259.58 323.58 256 328 256H442.18L459.64 192H328C323.58 192 320 188.42 320 184V168C320 163.58 323.58 160 328 160H468.36L485.82 96H328C323.58 96 320 92.42 320 88V72C320 67.58 323.58 64 328 64ZM64 192V64H133.82L145.46 192H64Z" fill="#6B6B6B"/>
</svg>
