<svg width="23" height="27" viewBox="0 0 23 27" fill="none" xmlns="http://www.w3.org/2000/svg">
<path d="M9.02117 11.2434C8.73063 11.2189 8.43943 11.2826 8.1857 11.4263C7.93197 11.5699 7.72752 11.7869 7.59912 12.0487C7.47072 12.3104 7.42435 12.6049 7.46607 12.8935C7.5078 13.1821 7.63568 13.4513 7.83297 13.666C8.03026 13.8807 8.28778 14.0309 8.57182 14.0968C8.85585 14.1627 9.15317 14.1413 9.42486 14.0355C9.69655 13.9296 9.92995 13.7442 10.0945 13.5035C10.2591 13.2628 10.3471 12.978 10.3472 12.6864C10.355 12.5046 10.3268 12.323 10.2644 12.152C10.2019 11.9811 10.1064 11.8241 9.98325 11.6901C9.8601 11.5561 9.71175 11.4477 9.54667 11.371C9.38159 11.2944 9.20302 11.251 9.02117 11.2434ZM13.7662 11.2434C13.4756 11.2189 13.1844 11.2826 12.9307 11.4263C12.677 11.5699 12.4725 11.7869 12.3441 12.0487C12.2157 12.3104 12.1694 12.6049 12.2111 12.8935C12.2528 13.1821 12.3807 13.4513 12.578 13.666C12.7753 13.8807 13.0328 14.0309 13.3168 14.0968C13.6009 14.1627 13.8982 14.1413 14.1699 14.0355C14.4416 13.9296 14.675 13.7442 14.8395 13.5035C15.0041 13.2628 15.0921 12.978 15.0922 12.6864C15.1 12.5046 15.0718 12.323 15.0094 12.152C14.9469 11.9811 14.8514 11.8241 14.7283 11.6901C14.6051 11.5561 14.4567 11.4477 14.2917 11.371C14.1266 11.2944 13.948 11.251 13.7662 11.2434Z" fill="#6B6B6B"/>
<path d="M20.085 0.335938H2.66501C2.31416 0.336724 1.96691 0.406625 1.64309 0.541645C1.31926 0.676666 1.02521 0.874161 0.777728 1.12285C0.530247 1.37154 0.334185 1.66655 0.200741 1.99103C0.0672983 2.3155 -0.000911169 2.66309 9.19105e-06 3.01394V20.5899C-0.000911169 20.9408 0.0672983 21.2884 0.200741 21.6129C0.334185 21.9373 0.530247 22.2323 0.777728 22.481C1.02521 22.7297 1.31926 22.9272 1.64309 23.0622C1.96691 23.1972 2.31416 23.2671 2.66501 23.2679H17.407L16.718 20.8629L18.382 22.4099L19.955 23.8659L22.75 26.3359V3.01394C22.7509 2.66309 22.6827 2.3155 22.5493 1.99103C22.4158 1.66655 22.2198 1.37154 21.9723 1.12285C21.7248 0.874161 21.4308 0.676666 21.1069 0.541645C20.7831 0.406625 20.4359 0.336724 20.085 0.335938V0.335938ZM15.067 17.3139C15.067 17.3139 14.599 16.7549 14.209 16.2609C15.1513 16.0391 15.9848 15.4911 16.562 14.7139C16.0942 15.0252 15.5927 15.2825 15.067 15.4809C14.4622 15.7391 13.8297 15.9267 13.182 16.0399C12.0686 16.2449 10.9268 16.2405 9.81501 16.0269C9.16231 15.8992 8.52265 15.7121 7.90401 15.4679C7.57792 15.3425 7.26083 15.1949 6.95501 15.0259C6.91601 14.9999 6.87701 14.9869 6.83801 14.9609C6.81845 14.9512 6.80083 14.938 6.78601 14.9219C6.6613 14.854 6.53984 14.7802 6.42201 14.7009C6.97834 15.4618 7.78304 16.0044 8.69701 16.2349C8.30701 16.7289 7.82601 17.3139 7.82601 17.3139C7.05378 17.3347 6.28827 17.1654 5.59687 16.8208C4.90546 16.4763 4.30935 15.967 3.86101 15.3379C3.90321 12.7025 4.54331 10.111 5.73301 7.75894C6.77995 6.93664 8.05637 6.45968 9.38601 6.39394L9.51601 6.54994C8.26506 6.85951 7.09771 7.44097 6.09701 8.25294C6.09701 8.25294 6.38301 8.09694 6.86401 7.87594C7.79846 7.44938 8.79438 7.17298 9.81501 7.05694C9.88778 7.04187 9.96173 7.03317 10.036 7.03094C10.9072 6.91744 11.7888 6.90871 12.662 7.00494C14.0353 7.16177 15.3645 7.58573 16.575 8.25294C15.625 7.47967 14.5217 6.91693 13.338 6.60194L13.52 6.39394C14.8496 6.45968 16.1261 6.93664 17.173 7.75894C18.3627 10.111 19.0028 12.7025 19.045 15.3379C18.593 15.9664 17.9944 16.4749 17.3011 16.8193C16.6078 17.1637 15.8409 17.3335 15.067 17.3139V17.3139Z" fill="#6B6B6B"/>
</svg>
