<svg width="30" height="30" viewBox="0 0 30 30" fill="none" xmlns="http://www.w3.org/2000/svg">
<path fill-rule="evenodd" clip-rule="evenodd" d="M8.62 0.423937C10.184 0.351937 10.6827 0.335938 14.6667 0.335938C18.6507 0.335938 19.1493 0.353271 20.712 0.423937C22.2747 0.494604 23.3413 0.743937 24.2747 1.10527C25.252 1.4746 26.1387 2.05194 26.872 2.7986C27.6187 3.5306 28.1947 4.41594 28.5627 5.3946C28.9253 6.32794 29.1733 7.3946 29.2453 8.9546C29.3173 10.5213 29.3333 11.0199 29.3333 15.0026C29.3333 18.9866 29.316 19.4853 29.2453 21.0493C29.1747 22.6093 28.9253 23.6759 28.5627 24.6093C28.1947 25.5881 27.6177 26.4749 26.872 27.2079C26.1387 27.9546 25.252 28.5306 24.2747 28.8986C23.3413 29.2613 22.2747 29.5093 20.7147 29.5813C19.1493 29.6533 18.6507 29.6693 14.6667 29.6693C10.6827 29.6693 10.184 29.6519 8.62 29.5813C7.06 29.5106 5.99333 29.2613 5.06 28.8986C4.08123 28.5306 3.19443 27.9536 2.46133 27.2079C1.71517 26.4755 1.13775 25.5891 0.769333 24.6106C0.408 23.6773 0.16 22.6106 0.088 21.0506C0.016 19.4839 0 18.9853 0 15.0026C0 11.0186 0.0173333 10.5199 0.088 8.95727C0.158667 7.3946 0.408 6.32794 0.769333 5.3946C1.1383 4.41605 1.71616 3.52969 2.46267 2.79727C3.19472 2.05127 4.08063 1.47386 5.05867 1.10527C5.992 0.743937 7.05867 0.495937 8.61867 0.423937H8.62ZM20.5933 3.06394C19.0467 2.99327 18.5827 2.9786 14.6667 2.9786C10.7507 2.9786 10.2867 2.99327 8.74 3.06394C7.30933 3.12927 6.53333 3.36794 6.016 3.56927C5.332 3.83594 4.84267 4.15194 4.32933 4.66527C3.84273 5.13867 3.46824 5.71498 3.23333 6.35194C3.032 6.86927 2.79333 7.64527 2.728 9.07594C2.65733 10.6226 2.64267 11.0866 2.64267 15.0026C2.64267 18.9186 2.65733 19.3826 2.728 20.9293C2.79333 22.3599 3.032 23.1359 3.23333 23.6533C3.468 24.2893 3.84267 24.8666 4.32933 25.3399C4.80267 25.8266 5.38 26.2013 6.016 26.4359C6.53333 26.6373 7.30933 26.8759 8.74 26.9413C10.2867 27.0119 10.7493 27.0266 14.6667 27.0266C18.584 27.0266 19.0467 27.0119 20.5933 26.9413C22.024 26.8759 22.8 26.6373 23.3173 26.4359C24.0013 26.1693 24.4907 25.8533 25.004 25.3399C25.4907 24.8666 25.8653 24.2893 26.1 23.6533C26.3013 23.1359 26.54 22.3599 26.6053 20.9293C26.676 19.3826 26.6907 18.9186 26.6907 15.0026C26.6907 11.0866 26.676 10.6226 26.6053 9.07594C26.54 7.64527 26.3013 6.86927 26.1 6.35194C25.8333 5.66794 25.5173 5.1786 25.004 4.66527C24.5306 4.1787 23.9543 3.80422 23.3173 3.56927C22.8 3.36794 22.024 3.12927 20.5933 3.06394ZM12.7933 19.5239C13.8395 19.9594 15.0045 20.0182 16.0892 19.6902C17.174 19.3622 18.1112 18.6678 18.7408 17.7256C19.3704 16.7834 19.6534 15.6518 19.5414 14.5241C19.4294 13.3964 18.9293 12.3426 18.1267 11.5426C17.615 11.0312 16.9963 10.6397 16.3151 10.3961C15.6339 10.1526 14.9072 10.0631 14.1873 10.1341C13.4674 10.2051 12.7722 10.4348 12.1517 10.8068C11.5313 11.1787 11.001 11.6836 10.5991 12.2851C10.1971 12.8865 9.93358 13.5697 9.82735 14.2852C9.72112 15.0008 9.77487 15.731 9.98472 16.4233C10.1946 17.1156 10.5553 17.7527 11.041 18.2889C11.5266 18.825 12.1251 19.2468 12.7933 19.5239ZM9.336 9.67194C10.036 8.9719 10.8671 8.41661 11.7817 8.03775C12.6964 7.6589 13.6767 7.4639 14.6667 7.4639C15.6567 7.4639 16.637 7.6589 17.5516 8.03775C18.4662 8.41661 19.2973 8.9719 19.9973 9.67194C20.6974 10.372 21.2527 11.203 21.6315 12.1177C22.0104 13.0323 22.2054 14.0126 22.2054 15.0026C22.2054 15.9926 22.0104 16.9729 21.6315 17.8875C21.2527 18.8022 20.6974 19.6332 19.9973 20.3333C18.5835 21.747 16.6661 22.5413 14.6667 22.5413C12.6673 22.5413 10.7498 21.747 9.336 20.3333C7.92222 18.9195 7.12796 17.002 7.12796 15.0026C7.12796 13.0032 7.92222 11.0857 9.336 9.67194ZM23.8773 8.5866C24.0508 8.42296 24.1897 8.22618 24.2857 8.0079C24.3818 7.78963 24.4331 7.55429 24.4366 7.31584C24.44 7.07739 24.3956 6.84067 24.306 6.61968C24.2163 6.3987 24.0832 6.19795 23.9146 6.02932C23.746 5.86069 23.5452 5.72761 23.3243 5.63796C23.1033 5.54831 22.8665 5.5039 22.6281 5.50738C22.3896 5.51086 22.1543 5.56214 21.936 5.6582C21.7178 5.75426 21.521 5.89313 21.3573 6.0666C21.0391 6.40398 20.8648 6.8521 20.8716 7.31584C20.8784 7.77959 21.0656 8.22244 21.3935 8.55039C21.7215 8.87835 22.1643 9.06557 22.6281 9.07234C23.0918 9.0791 23.54 8.90486 23.8773 8.5866Z" fill="#6B6B6B"/>
</svg>
