<svg width="340" height="526" viewBox="0 0 340 526" fill="none" xmlns="http://www.w3.org/2000/svg">
<g clip-path="url(#clip0_378_1740)">
<path d="M135.293 1.1168C111.618 10.4322 65.7447 38.427 85.7401 108.074C86.378 110.339 87.5042 112.437 89.0392 114.218C90.5743 116 92.4809 117.422 94.6243 118.384C96.7733 119.354 99.1096 119.834 101.466 119.793C103.822 119.751 106.14 119.187 108.253 118.142C172.306 86.6051 162.43 33.5267 153.933 9.36482C153.298 7.5694 152.31 5.9197 151.028 4.51305C149.713 3.10797 148.134 1.97832 146.38 1.18958C144.632 0.420397 142.746 0.0159542 140.837 0.000896146C138.931 -0.0210176 137.042 0.359191 135.293 1.1168Z" fill="#6B6B6B"/>
<path d="M70.0877 111.982C64.1693 102.992 55.712 95.9726 45.7953 91.8203C35.8785 87.668 24.952 86.571 14.4103 88.6693C12.3826 88.9337 10.4572 89.7179 8.82029 90.946C7.1834 92.1742 5.89036 93.8047 5.06619 95.6801C4.22523 97.5414 3.87515 99.5878 4.04948 101.624C4.23545 103.662 4.92606 105.621 6.05871 107.324C11.4209 116.632 19.4078 124.144 29.0165 128.918C38.6252 133.691 49.4272 135.513 60.0658 134.155C62.5045 133.95 64.8484 133.114 66.8681 131.729C68.8825 130.29 70.4811 128.343 71.5015 126.085C72.5219 123.826 72.9278 121.338 72.6779 118.872C72.4122 116.414 71.5202 114.067 70.0877 112.055V111.982Z" fill="#6B6B6B"/>
<path d="M103.91 155.905L66.0736 359.946L9.11328 288.431C20.2003 240.956 43.7059 185.816 88.9982 152.581C92.4245 150.169 96.0625 148.074 99.8674 146.322L103.91 155.905Z" fill="#6B6B6B"/>
<path d="M256.418 286.001L103.911 155.901L99.9648 146.391C108.367 143.011 117.409 141.529 126.448 142.049C177.744 145.882 223.738 176.108 256.418 206.019V286.001Z" fill="#6B6B6B"/>
<path d="M256.42 286.007L103.913 155.906L66.0762 359.948L177.237 499.509L256.565 471.393L256.42 286.007Z" fill="#6B6B6B"/>
<path d="M177.222 499.512L117.865 520.545C89.9926 513.089 64.5646 498.424 44.1289 478.019L66.061 359.951L177.222 499.512Z" fill="#6B6B6B"/>
<path d="M9.11049 288.428C2.95771 313.219 -0.0355735 338.691 0.202122 364.237C0.226249 364.357 0.226249 364.481 0.202122 364.601C-0.161791 373.444 0.275723 382.303 1.50932 391.067C1.70298 392.789 1.96925 394.512 2.25974 396.186C3.01748 401.01 4.04388 405.789 5.33412 410.498C12.0937 436.025 25.454 459.313 44.0662 478.011L65.9983 359.943L9.11049 288.428Z" fill="#6B6B6B"/>
<path d="M195.851 522.853C169.998 527.721 143.401 526.935 117.879 520.548L177.236 499.516L195.851 522.853Z" fill="#6B6B6B"/>
<path d="M177.225 499.505L195.84 522.842C200.682 521.993 205.669 520.877 210.365 519.567C216.292 517.993 222.127 516.089 227.843 513.866C237.571 510.19 246.952 505.652 255.875 500.305L256.577 471.389L177.225 499.505Z" fill="#6B6B6B"/>
<path d="M256.548 471.405L255.846 500.322C276.417 488.094 294.422 471.979 308.86 452.871L256.548 471.405Z" fill="#6B6B6B"/>
<path d="M339.55 356.781C339.668 391.25 328.926 424.878 308.854 452.87L256.542 471.404L256.396 286.018L339.55 356.781Z" fill="#6B6B6B"/>
<path d="M339.55 356.773L256.396 286.009V205.955C272.032 220.178 286.349 235.792 299.171 252.605C316.092 272.785 328.226 296.549 334.66 322.107C337.718 333.414 339.361 345.059 339.55 356.773Z" fill="#6B6B6B"/>
</g>
<defs>
<clipPath id="clip0_378_1740">
<rect width="340" height="526" fill="white"/>
</clipPath>
</defs>
</svg>
