<svg width="33" height="22" viewBox="0 0 33 22" fill="none" xmlns="http://www.w3.org/2000/svg">
<path d="M31.3342 3.63248C31.153 2.98612 30.8 2.40094 30.3128 1.93915C29.8119 1.46315 29.1979 1.12266 28.5288 0.949815C26.0248 0.289815 15.9928 0.289815 15.9928 0.289815C11.8106 0.242232 7.6294 0.451514 3.47282 0.916481C2.80374 1.1021 2.19091 1.4502 1.68882 1.92982C1.19549 2.40448 0.838156 2.98981 0.65149 3.63115C0.20308 6.04681 -0.0147877 8.49961 0.000822911 10.9565C-0.0151771 13.4111 0.202156 15.8631 0.65149 18.2818C0.834156 18.9205 1.19016 19.5031 1.68482 19.9738C2.17949 20.4445 2.79549 20.7845 3.47282 20.9645C6.01016 21.6231 15.9928 21.6231 15.9928 21.6231C20.1804 21.6708 24.3669 21.4615 28.5288 20.9965C29.1979 20.8236 29.8119 20.4831 30.3128 20.0071C30.8062 19.5365 31.1568 18.9511 31.3328 18.3138C31.7929 15.8991 32.0167 13.4453 32.0008 10.9871C32.0354 8.51862 31.812 6.05323 31.3342 3.63115V3.63248ZM12.8035 15.5218V6.39248L21.1502 10.9578L12.8035 15.5218Z" fill="#6B6B6B"/>
</svg>
