<svg width="50" height="50" viewBox="0 0 50 50" fill="none" xmlns="http://www.w3.org/2000/svg">
    <path
        id="fill_target"
        d="M25 0C38.8078 0 50 11.1922 50 25C50 38.8078 38.8078 50 25 50C11.1922 50 0 38.8078 0 25C0 11.1922 11.1922 0 25 0ZM38.6031 30.4953H16.1562C15.9136 30.4951 15.6806 30.5905 15.5078 30.7609L11.0734 35.1594C11.0091 35.223 10.9651 35.3043 10.9473 35.3931C10.9294 35.4818 10.9384 35.5738 10.9731 35.6573C11.0079 35.7409 11.0667 35.8122 11.1422 35.8621C11.2177 35.912 11.3064 35.9383 11.3969 35.9375H33.8438C34.0864 35.9378 34.3194 35.8423 34.4922 35.6719L38.9266 31.2719C38.9904 31.2082 39.0338 31.127 39.0514 31.0385C39.069 30.9501 39.0598 30.8584 39.0252 30.7752C38.9905 30.6919 38.9319 30.6209 38.8567 30.5711C38.7816 30.5212 38.6933 30.4949 38.6031 30.4953ZM33.8438 22.2266H11.3969L11.2906 22.2375C11.2114 22.2557 11.1384 22.2948 11.0795 22.3508C11.0205 22.4068 10.9776 22.4775 10.9552 22.5557C10.9329 22.6339 10.9319 22.7167 10.9524 22.7954C10.973 22.8741 11.0142 22.9458 11.0719 23.0031L15.5094 27.4031L15.6188 27.4969C15.775 27.6062 15.9625 27.6688 16.1562 27.6688H38.6031L38.7094 27.6578C38.7886 27.6396 38.8616 27.6005 38.9205 27.5445C38.9795 27.4885 39.0224 27.4178 39.0448 27.3396C39.0671 27.2614 39.0681 27.1786 39.0476 27.0999C39.027 27.0213 38.9858 26.9495 38.9281 26.8922L34.4906 22.4922L34.3812 22.3984C34.2245 22.2864 34.0365 22.2263 33.8438 22.2266ZM38.6031 14.0625H16.1562C15.9136 14.0622 15.6806 14.1577 15.5078 14.3281L11.0734 18.7281C11.0096 18.7918 10.9662 18.873 10.9486 18.9615C10.931 19.0499 10.9402 19.1416 10.9748 19.2248C11.0095 19.3081 11.0681 19.3791 11.1433 19.4289C11.2184 19.4788 11.3067 19.5051 11.3969 19.5047H33.8438C34.0864 19.5049 34.3194 19.4095 34.4922 19.2391L38.9266 14.8406C38.9909 14.777 39.0349 14.6957 39.0527 14.607C39.0706 14.5182 39.0616 14.4262 39.0269 14.3427C38.9921 14.2591 38.9333 14.1878 38.8578 14.1379C38.7823 14.088 38.6936 14.0617 38.6031 14.0625Z"
        fill="black"
    />
</svg>
