<svg width="50" height="50" viewBox="0 0 50 50" fill="none" xmlns="http://www.w3.org/2000/svg">
    <path
        id="fill_target"
        d="M25 50C11.1922 50 0 38.8078 0 25C0 11.1922 11.1922 0 25 0C38.8078 0 50 11.1922 50 25C50 38.8078 38.8078 50 25 50ZM16.5187 18.0422L12.6594 35.6734C12.6311 35.7814 12.6395 35.8958 12.6834 35.9985C12.7272 36.1012 12.804 36.1864 12.9016 36.2406L24.7344 43.6547C24.8219 43.7094 24.9156 43.7328 25.0047 43.7328C25.101 43.7338 25.1955 43.7066 25.2766 43.6547L37.1094 36.2406C37.2067 36.1861 37.2831 36.1008 37.3267 35.9982C37.3702 35.8955 37.3784 35.7813 37.35 35.6734L33.4906 18.0422C33.4759 17.9686 33.445 17.8992 33.4 17.8391L25.4156 6.92969C25.3695 6.86406 25.3078 6.81087 25.2361 6.77488C25.1644 6.7389 25.0849 6.72122 25.0047 6.72344C24.9247 6.72148 24.8456 6.73928 24.7742 6.77526C24.7027 6.81124 24.6413 6.86428 24.5953 6.92969L16.6109 17.8406C16.5654 17.9006 16.5339 17.97 16.5187 18.0438V18.0422ZM14.3391 32.6781L17.1 20.0688L18.6781 25.0234L14.3391 32.6781ZM14.0016 35.3031L19.0906 26.3219L21.95 35.3016H14L14.0016 35.3031ZM14.8844 36.3031H22.2687L24.1094 42.0828L14.8844 36.3016V36.3031ZM19.3484 23.8375L17.5625 18.2313L24.5 8.75469V14.7484L19.3484 23.8375ZM25.0047 41.6016L23.3172 36.3016H26.6922L25.0047 41.6016ZM25.9016 42.0828L27.7422 36.3016H35.1266L25.9016 42.0828ZM32.9109 20.0688L35.6703 32.6781L31.3328 25.0234L32.9109 20.0703V20.0688ZM30.6609 23.8375L25.5109 14.75V8.75469L32.4484 18.2313L30.6609 23.8375ZM36.0078 35.3016H28.0625L30.9219 26.3219L36.0094 35.3016H36.0078ZM25.0047 15.8844L30.2484 25.1359L27.0109 35.3016H23L19.7625 25.1359L25.0047 15.8844Z"
        fill="black"
    />
</svg>
