<svg width="50" height="50" viewBox="0 0 50 50" fill="none" xmlns="http://www.w3.org/2000/svg">
<path fill-rule="evenodd" clip-rule="evenodd" d="M25 50C11.1922 50 0 38.8078 0 25C0 11.1922 11.1922 0 25 0C38.8078 0 50 11.1922 50 25C50 38.8078 38.8078 50 25 50ZM43.75 29.6281L32.0563 19.5312H28.3453L35.5719 25.7781L33.2891 27.7422L28.5406 21.9484H25.4L19.6938 28.8938L19.0719 29.6531L21.8656 21.9609H19.3281L17.4781 27.1562L15.625 21.9625H12.5L10.6437 27.1688L8.78125 21.9406H6.25L9.02031 29.6141H12.3203L14.0625 24.7234L15.8187 29.6531H19.0688L17.125 32.0312H20.2453L26.9719 23.8422L28.8984 26.1984H26.3687L25.0672 27.8062H30.2109L31.7031 29.6187H34.825L37.4359 27.3844L40.0562 29.6281H43.75ZM40.0859 24.9844L43.6 22.0125L40.0828 22.0094L38.3438 23.4906L40.0859 24.9844Z" fill="#FF5C00"/>
</svg>
