<svg width="341" height="526" viewBox="0 0 341 526" fill="none" xmlns="http://www.w3.org/2000/svg">
<g clip-path="url(#clip0_378_1744)">
<path d="M136.291 1.1168C112.616 10.4322 66.7428 38.427 86.7382 108.074C87.3761 110.339 88.5023 112.437 90.0373 114.218C91.5724 116 93.479 117.422 95.6224 118.384C97.7714 119.354 100.108 119.834 102.464 119.793C104.82 119.751 107.138 119.187 109.251 118.142C173.304 86.6051 163.428 33.5267 154.931 9.36482C154.296 7.5694 153.308 5.9197 152.026 4.51305C150.711 3.10797 149.132 1.97832 147.378 1.18958C145.63 0.420397 143.744 0.0159542 141.835 0.000896146C139.929 -0.0210176 138.04 0.359191 136.291 1.1168Z" fill="#6B6B6B"/>
<path d="M71.0857 111.982C65.1673 102.992 56.71 95.9726 46.7933 91.8203C36.8765 87.668 25.95 86.571 15.4083 88.6693C13.3806 88.9337 11.4552 89.7179 9.81834 90.946C8.18145 92.1742 6.88841 93.8047 6.06424 95.6801C5.22328 97.5414 4.8732 99.5878 5.04753 101.624C5.2335 103.662 5.92411 105.621 7.05676 107.324C12.4189 116.632 20.4058 124.144 30.0145 128.918C39.6232 133.691 50.4252 135.513 61.0638 134.155C63.5025 133.95 65.8464 133.114 67.8661 131.729C69.8805 130.29 71.4791 128.343 72.4995 126.085C73.5199 123.826 73.9258 121.338 73.6759 118.872C73.4102 116.414 72.5182 114.067 71.0857 112.055V111.982Z" fill="#6B6B6B"/>
</g>
<path d="M339.998 357C339.998 447.5 272.497 519 170.998 525.5C92.9974 525.5 23 482.5 1.9974 384C-10.0001 278 48.0434 142.5 121.497 142.5C237.998 142.5 339.998 269.5 339.998 357Z" fill="#6B6B6B"/>
<defs>
<clipPath id="clip0_378_1744">
<rect width="340" height="526" fill="white" transform="translate(0.998047)"/>
</clipPath>
</defs>
</svg>
