<svg width="31" height="25" viewBox="0 0 31 25" fill="none" xmlns="http://www.w3.org/2000/svg">
<path d="M30.2747 2.92717C29.1613 3.4205 27.9653 3.75384 26.708 3.9045C28.0053 3.12823 28.9759 1.90646 29.4387 0.46717C28.2198 1.19116 26.8858 1.70076 25.4947 1.97384C24.5592 0.97499 23.3201 0.312939 21.9698 0.090469C20.6195 -0.132001 19.2335 0.097559 18.027 0.743507C16.8205 1.38946 15.861 2.41565 15.2975 3.66278C14.734 4.9099 14.598 6.30817 14.9107 7.6405C12.4409 7.5165 10.0248 6.87457 7.81923 5.75638C5.61363 4.63818 3.66779 3.06872 2.108 1.14984C1.57467 2.06984 1.268 3.1365 1.268 4.2725C1.26741 5.29516 1.51924 6.30216 2.00117 7.20415C2.4831 8.10613 3.18022 8.87522 4.03067 9.44317C3.04437 9.41179 2.07983 9.14528 1.21733 8.66584V8.74584C1.21723 10.1802 1.71338 11.5703 2.62158 12.6805C3.52978 13.7907 4.7941 14.5524 6.2 14.8365C5.28505 15.0841 4.32578 15.1206 3.39467 14.9432C3.79133 16.1773 4.56399 17.2565 5.60449 18.0297C6.64499 18.8029 7.90122 19.2314 9.19733 19.2552C6.99711 20.9824 4.27985 21.9193 1.48267 21.9152C0.987175 21.9153 0.492102 21.8864 0 21.8285C2.8393 23.6541 6.14445 24.6229 9.52 24.6192C20.9467 24.6192 27.1933 15.1552 27.1933 6.94717C27.1933 6.6805 27.1867 6.41117 27.1747 6.1445C28.3897 5.2658 29.4385 4.1777 30.272 2.93117L30.2747 2.92717Z" fill="#6B6B6B"/>
</svg>
