<svg width="246" height="317" viewBox="0 0 246 317" fill="none" xmlns="http://www.w3.org/2000/svg">
<path d="M92.2533 17.3179L87.5069 16.1828L89.2197 0.952954H106.101V5.76131H94.1106L93.3677 12.427C93.7667 12.1931 94.372 11.9454 95.1838 11.684C95.9955 11.4089 96.9035 11.2713 97.9078 11.2713C99.3661 11.2713 100.659 11.4983 101.787 11.9523C102.916 12.4063 103.872 13.0667 104.656 13.9334C105.454 14.8002 106.059 15.8595 106.472 17.1115C106.885 18.3635 107.091 19.7805 107.091 21.3627C107.091 22.6972 106.885 23.9698 106.472 25.1804C106.059 26.3774 105.433 27.4505 104.594 28.3998C103.755 29.3353 102.702 30.0713 101.437 30.6079C100.171 31.1445 98.6714 31.4127 96.9379 31.4127C95.6446 31.4127 94.3927 31.2201 93.182 30.8349C91.9851 30.4497 90.9051 29.8787 89.942 29.1221C88.9927 28.3654 88.2292 27.4505 87.6514 26.3774C87.0873 25.2905 86.7915 24.0523 86.764 22.6628H92.6661C92.7486 23.5158 92.9687 24.2518 93.3264 24.8709C93.6979 25.4762 94.1863 25.944 94.7917 26.2742C95.397 26.6044 96.1055 26.7695 96.9172 26.7695C97.6739 26.7695 98.3205 26.625 98.8571 26.3361C99.3936 26.0472 99.827 25.6482 100.157 25.1392C100.487 24.6164 100.728 24.011 100.879 23.3231C101.045 22.6215 101.127 21.8648 101.127 21.0531C101.127 20.2414 101.031 19.5054 100.838 18.845C100.646 18.1846 100.35 17.6137 99.9508 17.1321C99.5519 16.6506 99.0428 16.2791 98.4237 16.0178C97.8184 15.7564 97.1098 15.6257 96.2981 15.6257C95.1975 15.6257 94.3445 15.7976 93.7392 16.1416C93.1476 16.4855 92.6523 16.8776 92.2533 17.3179ZM131.154 13.335V18.5354C131.154 20.7917 130.913 22.7384 130.431 24.3756C129.95 25.999 129.255 27.3335 128.347 28.3791C127.453 29.411 126.386 30.1745 125.148 30.6698C123.91 31.1651 122.534 31.4127 121.021 31.4127C119.81 31.4127 118.682 31.2614 117.636 30.9587C116.591 30.6423 115.648 30.1539 114.809 29.4935C113.984 28.8331 113.268 28.0008 112.663 26.9965C112.071 25.9784 111.617 24.7677 111.301 23.3644C110.985 21.9611 110.826 20.3515 110.826 18.5354V13.335C110.826 11.0787 111.067 9.14573 111.549 7.53606C112.044 5.91264 112.739 4.58501 113.633 3.55318C114.541 2.52134 115.614 1.76466 116.852 1.28314C118.09 0.78786 119.466 0.54022 120.98 0.54022C122.19 0.54022 123.312 0.698434 124.343 1.01486C125.389 1.31754 126.331 1.79218 127.171 2.4388C128.01 3.08541 128.725 3.91776 129.317 4.93584C129.908 5.94016 130.362 7.14397 130.679 8.54726C130.995 9.9368 131.154 11.5327 131.154 13.335ZM125.19 19.3196V12.5301C125.19 11.4433 125.128 10.494 125.004 9.68228C124.894 8.87057 124.722 8.18268 124.488 7.61861C124.254 7.04078 123.965 6.57302 123.621 6.21531C123.277 5.85761 122.885 5.59621 122.445 5.43112C122.005 5.26603 121.516 5.18348 120.98 5.18348C120.306 5.18348 119.707 5.31418 119.184 5.57558C118.675 5.83697 118.242 6.25659 117.884 6.83442C117.526 7.39849 117.251 8.15516 117.059 9.10445C116.88 10.04 116.79 11.1819 116.79 12.5301V19.3196C116.79 20.4065 116.845 21.3627 116.955 22.1881C117.079 23.0136 117.258 23.7221 117.492 24.3137C117.74 24.8915 118.029 25.3662 118.359 25.7376C118.703 26.0953 119.095 26.3567 119.535 26.5218C119.989 26.6869 120.484 26.7695 121.021 26.7695C121.681 26.7695 122.266 26.6388 122.775 26.3774C123.298 26.1022 123.738 25.6757 124.096 25.0979C124.467 24.5063 124.742 23.7359 124.921 22.7866C125.1 21.8373 125.19 20.6816 125.19 19.3196ZM155.422 13.335V18.5354C155.422 20.7917 155.182 22.7384 154.7 24.3756C154.218 25.999 153.524 27.3335 152.616 28.3791C151.721 29.411 150.655 30.1745 149.417 30.6698C148.179 31.1651 146.803 31.4127 145.29 31.4127C144.079 31.4127 142.951 31.2614 141.905 30.9587C140.86 30.6423 139.917 30.1539 139.078 29.4935C138.253 28.8331 137.537 28.0008 136.932 26.9965C136.34 25.9784 135.886 24.7677 135.57 23.3644C135.253 21.9611 135.095 20.3515 135.095 18.5354V13.335C135.095 11.0787 135.336 9.14573 135.817 7.53606C136.313 5.91264 137.007 4.58501 137.902 3.55318C138.81 2.52134 139.883 1.76466 141.121 1.28314C142.359 0.78786 143.735 0.54022 145.248 0.54022C146.459 0.54022 147.58 0.698434 148.612 1.01486C149.658 1.31754 150.6 1.79218 151.439 2.4388C152.279 3.08541 152.994 3.91776 153.586 4.93584C154.177 5.94016 154.631 7.14397 154.948 8.54726C155.264 9.9368 155.422 11.5327 155.422 13.335ZM149.458 19.3196V12.5301C149.458 11.4433 149.396 10.494 149.273 9.68228C149.163 8.87057 148.991 8.18268 148.757 7.61861C148.523 7.04078 148.234 6.57302 147.89 6.21531C147.546 5.85761 147.154 5.59621 146.714 5.43112C146.273 5.26603 145.785 5.18348 145.248 5.18348C144.574 5.18348 143.976 5.31418 143.453 5.57558C142.944 5.83697 142.511 6.25659 142.153 6.83442C141.795 7.39849 141.52 8.15516 141.327 9.10445C141.149 10.04 141.059 11.1819 141.059 12.5301V19.3196C141.059 20.4065 141.114 21.3627 141.224 22.1881C141.348 23.0136 141.527 23.7221 141.761 24.3137C142.008 24.8915 142.297 25.3662 142.628 25.7376C142.971 26.0953 143.364 26.3567 143.804 26.5218C144.258 26.6869 144.753 26.7695 145.29 26.7695C145.95 26.7695 146.535 26.6388 147.044 26.3774C147.567 26.1022 148.007 25.6757 148.365 25.0979C148.736 24.5063 149.011 23.7359 149.19 22.7866C149.369 21.8373 149.458 20.6816 149.458 19.3196ZM179.155 14.2636V19.4434H158.559V14.2636H179.155ZM171.684 6.11213V27.987H166.05V6.11213H171.684Z" fill="#0F0F0F"/>
<path d="M94.7916 52.8776H97.8768C97.8149 53.8888 97.5363 54.7865 97.041 55.5707C96.5526 56.3548 95.8682 56.9671 94.9877 57.4073C94.1141 57.8476 93.0616 58.0677 91.8303 58.0677C90.8672 58.0677 90.0039 57.9026 89.2404 57.5724C88.4768 57.2353 87.8233 56.7538 87.2799 56.1278C86.7433 55.5019 86.334 54.7452 86.052 53.8578C85.77 52.9704 85.6289 51.9764 85.6289 50.8758V49.8336C85.6289 48.733 85.7734 47.739 86.0623 46.8516C86.3581 45.9574 86.7777 45.1973 87.3212 44.5713C87.8715 43.9453 88.5284 43.4638 89.292 43.1267C90.0555 42.7897 90.9085 42.6211 91.8509 42.6211C93.1029 42.6211 94.1588 42.8481 95.0186 43.3021C95.8854 43.7561 96.5561 44.3821 97.0307 45.1801C97.5122 45.978 97.8012 46.886 97.8975 47.9041H94.802C94.7676 47.2988 94.6472 46.7863 94.4408 46.3667C94.2344 45.9402 93.9215 45.6203 93.5018 45.4071C93.0891 45.187 92.5388 45.0769 91.8509 45.0769C91.335 45.0769 90.8844 45.1732 90.4992 45.3658C90.114 45.5584 89.7907 45.8508 89.5293 46.2429C89.2679 46.635 89.0718 47.1302 88.9411 47.7287C88.8173 48.3203 88.7554 49.0151 88.7554 49.813V50.8758C88.7554 51.6531 88.8139 52.3376 88.9308 52.9292C89.0478 53.5139 89.2266 54.0091 89.4674 54.415C89.715 54.814 90.0314 55.1166 90.4167 55.323C90.8088 55.5225 91.28 55.6222 91.8303 55.6222C92.4769 55.6222 93.01 55.5191 93.4296 55.3127C93.8492 55.1063 94.1691 54.8002 94.3892 54.3944C94.6162 53.9885 94.7504 53.4829 94.7916 52.8776ZM106.328 55.1889V46.6969H109.299V57.8613H106.503L106.328 55.1889ZM106.658 52.8982L107.535 52.8776C107.535 53.6205 107.449 54.3118 107.277 54.9516C107.105 55.5844 106.847 56.1347 106.503 56.6025C106.159 57.0634 105.726 57.4245 105.203 57.6859C104.68 57.9404 104.064 58.0677 103.356 58.0677C102.812 58.0677 102.31 57.992 101.849 57.8407C101.395 57.6825 101.003 57.4383 100.673 57.1081C100.35 56.771 100.095 56.3411 99.9095 55.8183C99.7307 55.2886 99.6413 54.6523 99.6413 53.9094V46.6969H102.613V53.93C102.613 54.2602 102.651 54.5388 102.726 54.7658C102.809 54.9928 102.923 55.1786 103.067 55.323C103.211 55.4675 103.38 55.5707 103.573 55.6326C103.772 55.6945 103.992 55.7254 104.233 55.7254C104.845 55.7254 105.327 55.6016 105.678 55.354C106.035 55.1063 106.286 54.7693 106.431 54.3428C106.582 53.9094 106.658 53.4279 106.658 52.8982ZM114.541 49.132V57.8613H111.569V46.6969H114.366L114.541 49.132ZM117.905 46.6246L117.853 49.3796C117.709 49.359 117.533 49.3418 117.327 49.328C117.127 49.3074 116.945 49.2971 116.78 49.2971C116.36 49.2971 115.996 49.3521 115.686 49.4622C115.384 49.5654 115.129 49.7201 114.923 49.9265C114.723 50.1329 114.572 50.384 114.469 50.6798C114.372 50.9755 114.317 51.3126 114.304 51.691L113.705 51.5052C113.705 50.7829 113.777 50.1191 113.922 49.5138C114.066 48.9016 114.276 48.3684 114.551 47.9144C114.833 47.4604 115.177 47.1096 115.583 46.862C115.989 46.6143 116.453 46.4905 116.976 46.4905C117.141 46.4905 117.31 46.5043 117.482 46.5318C117.654 46.5524 117.795 46.5834 117.905 46.6246ZM124.983 55.3436V50.3702C124.983 50.0125 124.925 49.7064 124.808 49.4519C124.691 49.1905 124.508 48.9875 124.261 48.8431C124.02 48.6986 123.707 48.6264 123.322 48.6264C122.992 48.6264 122.706 48.6849 122.465 48.8018C122.225 48.9119 122.039 49.0735 121.908 49.2868C121.778 49.4931 121.712 49.7373 121.712 50.0194H118.741C118.741 49.5447 118.851 49.0942 119.071 48.6677C119.291 48.2412 119.611 47.8663 120.03 47.543C120.45 47.2128 120.949 46.9548 121.526 46.7691C122.111 46.5834 122.765 46.4905 123.487 46.4905C124.354 46.4905 125.124 46.635 125.798 46.9239C126.472 47.2128 127.002 47.6462 127.387 48.224C127.779 48.8018 127.975 49.5241 127.975 50.3908V55.1682C127.975 55.7805 128.013 56.2826 128.089 56.6747C128.165 57.0599 128.275 57.397 128.419 57.6859V57.8613H125.417C125.272 57.5587 125.162 57.1803 125.086 56.7263C125.018 56.2654 124.983 55.8045 124.983 55.3436ZM125.375 51.0615L125.396 52.7434H123.735C123.343 52.7434 123.002 52.7881 122.713 52.8776C122.424 52.967 122.187 53.0942 122.001 53.2593C121.815 53.4176 121.678 53.6033 121.588 53.8165C121.506 54.0298 121.465 54.2637 121.465 54.5182C121.465 54.7727 121.523 55.0031 121.64 55.2095C121.757 55.409 121.925 55.5672 122.146 55.6842C122.366 55.7942 122.624 55.8492 122.919 55.8492C123.367 55.8492 123.755 55.7598 124.085 55.581C124.416 55.4021 124.67 55.182 124.849 54.9206C125.035 54.6592 125.131 54.4116 125.138 54.1777L125.922 55.4365C125.812 55.7185 125.661 56.0109 125.468 56.3136C125.282 56.6162 125.045 56.9017 124.756 57.17C124.467 57.4314 124.12 57.6481 123.714 57.8201C123.308 57.9851 122.827 58.0677 122.269 58.0677C121.561 58.0677 120.918 57.9267 120.34 57.6446C119.769 57.3557 119.315 56.9602 118.978 56.458C118.648 55.949 118.483 55.3712 118.483 54.7245C118.483 54.1398 118.593 53.6205 118.813 53.1665C119.033 52.7125 119.356 52.3307 119.783 52.0211C120.216 51.7047 120.756 51.4674 121.403 51.3092C122.049 51.1441 122.799 51.0615 123.652 51.0615H125.375ZM135.735 46.6969V48.8018H129.234V46.6969H135.735ZM130.844 43.9419H133.816V54.4975C133.816 54.8209 133.857 55.0685 133.939 55.2405C134.029 55.4124 134.16 55.5328 134.332 55.6016C134.504 55.6635 134.72 55.6945 134.982 55.6945C135.167 55.6945 135.332 55.6876 135.477 55.6738C135.628 55.6532 135.756 55.6326 135.859 55.6119L135.869 57.7994C135.614 57.882 135.339 57.9473 135.044 57.9955C134.748 58.0436 134.421 58.0677 134.063 58.0677C133.41 58.0677 132.839 57.9611 132.35 57.7478C131.869 57.5277 131.497 57.1769 131.236 56.6954C130.975 56.2138 130.844 55.581 130.844 54.7968V43.9419ZM142.566 58.0677C141.699 58.0677 140.922 57.9301 140.234 57.655C139.546 57.3729 138.961 56.9843 138.48 56.489C138.005 55.9937 137.64 55.4193 137.386 54.7658C137.131 54.1054 137.004 53.4038 137.004 52.6609V52.2481C137.004 51.402 137.124 50.6282 137.365 49.9265C137.606 49.2249 137.95 48.6161 138.397 48.1002C138.851 47.5842 139.401 47.1887 140.048 46.9136C140.695 46.6315 141.424 46.4905 142.235 46.4905C143.027 46.4905 143.728 46.6212 144.34 46.8826C144.953 47.144 145.465 47.5155 145.878 47.997C146.297 48.4785 146.614 49.0563 146.827 49.7305C147.04 50.3977 147.147 51.1406 147.147 51.9592V53.1974H138.273V51.2163H144.227V50.9893C144.227 50.5766 144.151 50.2085 144 49.8852C143.855 49.5551 143.635 49.2937 143.339 49.101C143.044 48.9084 142.665 48.8121 142.204 48.8121C141.812 48.8121 141.475 48.8981 141.193 49.0701C140.911 49.2421 140.681 49.4828 140.502 49.7924C140.33 50.1019 140.199 50.4665 140.11 50.8861C140.027 51.2989 139.986 51.7529 139.986 52.2481V52.6609C139.986 53.108 140.048 53.5207 140.172 53.8991C140.302 54.2774 140.485 54.6042 140.719 54.8793C140.959 55.1545 141.248 55.3677 141.585 55.5191C141.929 55.6704 142.318 55.7461 142.751 55.7461C143.288 55.7461 143.787 55.6429 144.248 55.4365C144.715 55.2233 145.118 54.9034 145.455 54.4769L146.899 56.0453C146.665 56.3824 146.346 56.7057 145.94 57.0152C145.541 57.3248 145.059 57.5793 144.495 57.7788C143.931 57.9714 143.288 58.0677 142.566 58.0677ZM155.433 55.4262V42.0123H158.425V57.8613H155.732L155.433 55.4262ZM148.375 52.4132V52.1966C148.375 51.3436 148.471 50.5697 148.664 49.8749C148.856 49.1733 149.138 48.5714 149.51 48.0692C149.881 47.5671 150.339 47.1784 150.882 46.9032C151.426 46.6281 152.045 46.4905 152.74 46.4905C153.393 46.4905 153.964 46.6281 154.452 46.9032C154.948 47.1784 155.367 47.5705 155.711 48.0795C156.062 48.5817 156.344 49.1767 156.557 49.8646C156.771 50.5456 156.925 51.292 157.022 52.1037V52.5783C156.925 53.3556 156.771 54.0779 156.557 54.7452C156.344 55.4124 156.062 55.9971 155.711 56.4993C155.367 56.9946 154.948 57.3798 154.452 57.655C153.957 57.9301 153.379 58.0677 152.719 58.0677C152.024 58.0677 151.405 57.9267 150.862 57.6446C150.325 57.3626 149.871 56.9671 149.5 56.458C149.135 55.949 148.856 55.3505 148.664 54.6626C148.471 53.9747 148.375 53.2249 148.375 52.4132ZM151.347 52.1966V52.4132C151.347 52.8741 151.381 53.3041 151.45 53.703C151.525 54.102 151.646 54.4563 151.811 54.7658C151.983 55.0685 152.203 55.3058 152.471 55.4778C152.746 55.6429 153.08 55.7254 153.472 55.7254C153.981 55.7254 154.401 55.6119 154.731 55.3849C155.061 55.151 155.312 54.8312 155.484 54.4253C155.663 54.0195 155.766 53.5517 155.794 53.022V51.6703C155.773 51.2369 155.711 50.8483 155.608 50.5043C155.512 50.1535 155.367 49.8543 155.175 49.6066C154.989 49.359 154.755 49.1664 154.473 49.0288C154.198 48.8912 153.871 48.8225 153.493 48.8225C153.108 48.8225 152.777 48.9119 152.502 49.0907C152.227 49.2627 152.003 49.5 151.831 49.8027C151.666 50.1054 151.543 50.4631 151.46 50.8758C151.384 51.2817 151.347 51.7219 151.347 52.1966ZM178.422 42.8378V57.8613H175.326L169.29 47.7906V57.8613H166.195V42.8378H169.29L175.337 52.9188V42.8378H178.422ZM184.21 42.8378V57.8613H181.115V42.8378H184.21ZM190.195 49.2558V51.6703H183.364V49.2558H190.195ZM190.917 42.8378V45.2626H183.364V42.8378H190.917ZM199.636 42.8378V57.8613H196.551V42.8378H199.636ZM204.259 42.8378V45.2626H192.001V42.8378H204.259ZM210.966 54.7761C210.966 54.5629 210.904 54.3703 210.78 54.1983C210.656 54.0263 210.426 53.8681 210.089 53.7237C209.759 53.5723 209.281 53.4348 208.655 53.3109C208.091 53.1871 207.564 53.0323 207.076 52.8466C206.594 52.654 206.175 52.4236 205.817 52.1553C205.466 51.887 205.191 51.5706 204.992 51.206C204.792 50.8345 204.692 50.4115 204.692 49.9368C204.692 49.4691 204.792 49.0288 204.992 48.6161C205.198 48.2033 205.49 47.8388 205.869 47.5223C206.254 47.199 206.722 46.9479 207.272 46.7691C207.829 46.5834 208.455 46.4905 209.15 46.4905C210.12 46.4905 210.952 46.6453 211.647 46.9548C212.349 47.2644 212.885 47.6909 213.257 48.2343C213.635 48.7709 213.824 49.3831 213.824 50.071H210.852C210.852 49.7821 210.791 49.5241 210.667 49.2971C210.55 49.0632 210.364 48.8809 210.11 48.7502C209.862 48.6126 209.539 48.5439 209.14 48.5439C208.809 48.5439 208.524 48.6023 208.283 48.7193C208.042 48.8293 207.857 48.9807 207.726 49.1733C207.602 49.359 207.54 49.5654 207.54 49.7924C207.54 49.9643 207.575 50.1191 207.643 50.2567C207.719 50.3874 207.84 50.5078 208.005 50.6178C208.17 50.7279 208.383 50.8311 208.644 50.9274C208.913 51.0168 209.243 51.0994 209.635 51.175C210.44 51.3401 211.159 51.5568 211.791 51.8251C212.424 52.0865 212.926 52.4442 213.298 52.8982C213.669 53.3453 213.855 53.9335 213.855 54.6626C213.855 55.1579 213.745 55.6119 213.525 56.0247C213.305 56.4374 212.988 56.7985 212.576 57.1081C212.163 57.4108 211.668 57.6481 211.09 57.8201C210.519 57.9851 209.876 58.0677 209.16 58.0677C208.122 58.0677 207.241 57.882 206.519 57.5105C205.803 57.139 205.26 56.6678 204.888 56.0969C204.524 55.5191 204.342 54.9275 204.342 54.3221H207.159C207.172 54.728 207.275 55.0547 207.468 55.3024C207.668 55.55 207.919 55.7289 208.221 55.8389C208.531 55.949 208.864 56.004 209.222 56.004C209.607 56.004 209.927 55.9524 210.182 55.8492C210.436 55.7392 210.629 55.5947 210.76 55.4159C210.897 55.2301 210.966 55.0169 210.966 54.7761Z" fill="#6B6B6B"/>
<path d="M62.5154 0H0V62.5154H62.5154V0Z" fill="#42A5F5"/>
<path d="M30.5045 0V25.6087H0V27.1151H32.0109V0H30.5045Z" fill="white"/>
<path d="M59.9283 62.5175L62.5155 58.8381V56.2207L58.0867 62.5175H59.9283ZM49.4212 35.5605L35.5586 55.2755L45.8586 62.5175H48.4759L37.6562 54.9102L49.7865 37.6582L62.5155 46.61V44.7684L49.4212 35.5605Z" fill="white"/>
<path d="M26.3617 33.0645L18.374 41.0521L26.3617 49.0398L34.3494 41.0521L26.3617 33.0645ZM20.5018 41.0521L26.3617 35.1922L32.2216 41.0521L26.3617 46.912L20.5018 41.0521Z" fill="white"/>
<path d="M100.207 131.765V161.613H94.3153V138.557L87.2368 140.807V136.163L99.5731 131.765H100.207ZM130.281 157.01V161.613H109.905V157.685L119.54 147.354C120.509 146.276 121.272 145.329 121.832 144.51C122.391 143.678 122.793 142.935 123.039 142.28C123.298 141.612 123.427 140.978 123.427 140.378C123.427 139.477 123.277 138.707 122.977 138.066C122.677 137.411 122.234 136.907 121.648 136.552C121.075 136.197 120.365 136.02 119.52 136.02C118.62 136.02 117.842 136.238 117.188 136.675C116.547 137.111 116.056 137.718 115.715 138.495C115.387 139.273 115.224 140.153 115.224 141.135H109.311C109.311 139.362 109.734 137.739 110.58 136.266C111.425 134.779 112.619 133.599 114.16 132.726C115.701 131.84 117.529 131.396 119.643 131.396C121.729 131.396 123.489 131.737 124.921 132.419C126.367 133.088 127.458 134.056 128.194 135.324C128.944 136.579 129.319 138.079 129.319 139.825C129.319 140.807 129.163 141.769 128.849 142.71C128.535 143.637 128.085 144.565 127.499 145.492C126.926 146.406 126.23 147.333 125.412 148.275C124.594 149.216 123.687 150.191 122.691 151.2L117.515 157.01H130.281ZM149.164 131.519H150.023V136.225H149.675C148.121 136.225 146.736 136.456 145.522 136.92C144.308 137.384 143.279 138.045 142.433 138.905C141.601 139.75 140.96 140.773 140.51 141.973C140.074 143.174 139.855 144.517 139.855 146.004V150.955C139.855 152.018 139.958 152.959 140.162 153.778C140.38 154.582 140.687 155.258 141.083 155.803C141.492 156.335 141.969 156.737 142.515 157.01C143.061 157.269 143.674 157.399 144.356 157.399C144.997 157.399 145.577 157.262 146.095 156.99C146.627 156.717 147.077 156.335 147.445 155.844C147.827 155.339 148.114 154.753 148.305 154.085C148.509 153.403 148.612 152.659 148.612 151.855C148.612 151.05 148.509 150.307 148.305 149.625C148.114 148.943 147.827 148.356 147.445 147.865C147.063 147.361 146.6 146.972 146.054 146.699C145.509 146.426 144.895 146.29 144.213 146.29C143.286 146.29 142.467 146.508 141.758 146.945C141.062 147.368 140.517 147.913 140.121 148.581C139.726 149.25 139.514 149.952 139.487 150.689L137.707 149.543C137.748 148.493 137.966 147.497 138.362 146.556C138.771 145.615 139.33 144.783 140.04 144.06C140.762 143.324 141.628 142.751 142.638 142.342C143.647 141.919 144.786 141.707 146.054 141.707C147.445 141.707 148.666 141.973 149.716 142.505C150.78 143.037 151.667 143.767 152.376 144.694C153.085 145.622 153.617 146.692 153.972 147.906C154.326 149.12 154.503 150.416 154.503 151.793C154.503 153.239 154.265 154.582 153.787 155.824C153.324 157.065 152.649 158.149 151.762 159.076C150.889 160.004 149.839 160.727 148.612 161.245C147.384 161.763 146.006 162.022 144.479 162.022C142.897 162.022 141.458 161.736 140.162 161.163C138.88 160.577 137.775 159.758 136.848 158.708C135.921 157.658 135.205 156.41 134.7 154.964C134.209 153.519 133.963 151.937 133.963 150.218V147.927C133.963 145.526 134.311 143.33 135.007 141.339C135.716 139.334 136.732 137.602 138.055 136.143C139.378 134.67 140.974 133.531 142.842 132.726C144.711 131.922 146.818 131.519 149.164 131.519ZM164.16 130.169V161.613H158.268V130.169H164.16ZM178.112 139.477L168.497 150.443L163.341 155.66L161.193 151.405L165.285 146.208L171.034 139.477H178.112ZM171.995 161.613L165.449 151.384L169.52 147.824L178.787 161.613H171.995ZM199.921 145.022V150.157H179.503V145.022H199.921ZM192.515 136.941V158.626H186.93V136.941H192.515Z" fill="#0F0F0F"/>
<path d="M95.0109 184.847V187.148H84.8227V185.184L89.6406 180.019C90.1248 179.48 90.5067 179.006 90.7863 178.597C91.0659 178.181 91.2671 177.809 91.3898 177.482C91.5194 177.148 91.5842 176.831 91.5842 176.531C91.5842 176.081 91.5092 175.695 91.3591 175.375C91.2091 175.047 90.9875 174.795 90.6942 174.618C90.4078 174.44 90.0532 174.352 89.6304 174.352C89.1803 174.352 88.7916 174.461 88.4643 174.679C88.1438 174.897 87.8983 175.201 87.7278 175.59C87.5641 175.978 87.4823 176.418 87.4823 176.909H84.5261C84.5261 176.023 84.7375 175.211 85.1603 174.475C85.5831 173.731 86.1798 173.141 86.9504 172.705C87.721 172.262 88.6348 172.04 89.6918 172.04C90.7351 172.04 91.6149 172.211 92.3309 172.551C93.0537 172.886 93.5993 173.37 93.9675 174.004C94.3426 174.631 94.5302 175.382 94.5302 176.254C94.5302 176.745 94.4517 177.226 94.2949 177.697C94.138 178.16 93.913 178.624 93.6198 179.088C93.3333 179.545 92.9856 180.009 92.5764 180.479C92.1672 180.95 91.7137 181.437 91.2159 181.942L88.6279 184.847H95.0109ZM107.286 181.584V183.896H96.5555L96.4123 182.105L102.621 172.255H104.964L102.427 176.5L99.3378 181.584H107.286ZM105.598 172.255V187.148H102.652V172.255H105.598ZM119.121 178.321V180.714H111.347V178.321H119.121ZM112.257 172.255V187.148H109.188V172.255H112.257ZM121.31 172.255V187.148H118.251V172.255H121.31ZM134.567 184.039L138.076 172.255H141.492L136.306 187.148H134.055L134.567 184.039ZM131.335 172.255L134.833 184.039L135.365 187.148H133.094L127.938 172.255H131.335ZM154.974 179.354V180.06C154.974 181.192 154.821 182.208 154.514 183.108C154.207 184.008 153.774 184.775 153.215 185.409C152.655 186.037 151.987 186.518 151.21 186.852C150.439 187.186 149.583 187.353 148.642 187.353C147.708 187.353 146.852 187.186 146.075 186.852C145.304 186.518 144.636 186.037 144.07 185.409C143.504 184.775 143.064 184.008 142.75 183.108C142.443 182.208 142.29 181.192 142.29 180.06V179.354C142.29 178.215 142.443 177.199 142.75 176.306C143.057 175.405 143.49 174.638 144.049 174.004C144.615 173.37 145.284 172.886 146.054 172.551C146.832 172.217 147.687 172.05 148.622 172.05C149.563 172.05 150.419 172.217 151.189 172.551C151.967 172.886 152.635 173.37 153.194 174.004C153.76 174.638 154.197 175.405 154.503 176.306C154.817 177.199 154.974 178.215 154.974 179.354ZM151.875 180.06V179.333C151.875 178.542 151.803 177.847 151.66 177.247C151.517 176.647 151.305 176.142 151.026 175.733C150.746 175.324 150.405 175.017 150.003 174.812C149.6 174.601 149.14 174.495 148.622 174.495C148.103 174.495 147.643 174.601 147.241 174.812C146.845 175.017 146.508 175.324 146.228 175.733C145.955 176.142 145.747 176.647 145.604 177.247C145.461 177.847 145.389 178.542 145.389 179.333V180.06C145.389 180.844 145.461 181.539 145.604 182.146C145.747 182.747 145.959 183.255 146.238 183.671C146.518 184.08 146.859 184.39 147.261 184.601C147.664 184.813 148.124 184.918 148.642 184.918C149.16 184.918 149.621 184.813 150.023 184.601C150.425 184.39 150.763 184.08 151.036 183.671C151.309 183.255 151.517 182.747 151.66 182.146C151.803 181.539 151.875 180.844 151.875 180.06ZM166.758 184.755V187.148H159.26V184.755H166.758ZM160.252 172.255V187.148H157.184V172.255H160.252ZM176.394 172.255H179.452V182.095C179.452 183.241 179.207 184.206 178.716 184.99C178.232 185.774 177.56 186.364 176.701 186.76C175.848 187.155 174.866 187.353 173.755 187.353C172.643 187.353 171.654 187.155 170.788 186.76C169.929 186.364 169.254 185.774 168.763 184.99C168.279 184.206 168.037 183.241 168.037 182.095V172.255H171.105V182.095C171.105 182.764 171.211 183.309 171.422 183.732C171.634 184.155 171.937 184.465 172.333 184.663C172.735 184.861 173.209 184.959 173.755 184.959C174.314 184.959 174.788 184.861 175.177 184.663C175.572 184.465 175.872 184.155 176.077 183.732C176.288 183.309 176.394 182.764 176.394 182.095V172.255ZM183.38 172.255H185.978L189.804 183.19L193.63 172.255H196.228L190.848 187.148H188.761L183.38 172.255ZM181.979 172.255H184.567L185.037 182.914V187.148H181.979V172.255ZM195.041 172.255H197.64V187.148H194.571V182.914L195.041 172.255ZM210.324 184.755V187.148H202.396V184.755H210.324ZM203.399 172.255V187.148H200.33V172.255H203.399ZM209.291 178.321V180.653H202.396V178.321H209.291ZM210.314 172.255V174.659H202.396V172.255H210.314Z" fill="#6B6B6B"/>
<path d="M15.2755 172.877L23.5679 171.131L34.9154 156.074H42.1167L53.0278 143.199L61.9748 124.432V186.406H0L15.2755 172.877Z" fill="#42A5F5"/>
<path d="M18.7156 148.225V151.432H4.52088V148.695L11.2334 141.498C11.908 140.748 12.4401 140.087 12.8296 139.517C13.2192 138.938 13.4995 138.42 13.6705 137.964C13.851 137.498 13.9413 137.056 13.9413 136.638C13.9413 136.011 13.8368 135.474 13.6277 135.028C13.4187 134.572 13.1099 134.22 12.7014 133.973C12.3023 133.726 11.8083 133.603 11.2192 133.603C10.5921 133.603 10.0505 133.755 9.59449 134.059C9.14794 134.363 8.8059 134.786 8.56837 135.327C8.34034 135.869 8.22633 136.482 8.22633 137.166H4.10758C4.10758 135.931 4.40211 134.8 4.99118 133.774C5.58025 132.738 6.41161 131.916 7.48524 131.308C8.55887 130.691 9.83202 130.382 11.3047 130.382C12.7584 130.382 13.984 130.619 14.9816 131.094C15.9888 131.56 16.7489 132.235 17.2619 133.118C17.7845 133.992 18.0458 135.037 18.0458 136.254C18.0458 136.938 17.9365 137.607 17.718 138.263C17.4995 138.909 17.1859 139.555 16.7774 140.201C16.3783 140.838 15.8938 141.484 15.3237 142.14C14.7536 142.795 14.1218 143.474 13.4282 144.178L9.82252 148.225H18.7156ZM35.8177 143.679V146.9H20.8676L20.6681 144.406L29.3189 130.681H32.5825L29.0481 136.596L24.7441 143.679H35.8177ZM33.4661 130.681V151.432H29.3616V130.681H33.4661Z" fill="#42A5F5"/>
<path d="M110.439 255.409H111.298V260.114H110.951C109.396 260.114 108.012 260.346 106.798 260.81C105.584 261.273 104.554 261.935 103.709 262.794C102.877 263.64 102.236 264.662 101.786 265.863C101.349 267.063 101.131 268.406 101.131 269.893V274.844C101.131 275.907 101.233 276.848 101.438 277.667C101.656 278.471 101.963 279.146 102.358 279.692C102.768 280.224 103.245 280.626 103.79 280.899C104.336 281.158 104.95 281.288 105.632 281.288C106.273 281.288 106.852 281.151 107.371 280.879C107.902 280.606 108.352 280.224 108.721 279.733C109.103 279.228 109.389 278.642 109.58 277.974C109.785 277.292 109.887 276.548 109.887 275.744C109.887 274.939 109.785 274.196 109.58 273.514C109.389 272.832 109.103 272.245 108.721 271.754C108.339 271.25 107.875 270.861 107.33 270.588C106.784 270.316 106.17 270.179 105.488 270.179C104.561 270.179 103.743 270.397 103.033 270.834C102.338 271.257 101.792 271.802 101.397 272.47C101.001 273.139 100.79 273.841 100.763 274.578L98.9829 273.432C99.0238 272.382 99.242 271.386 99.6375 270.445C100.047 269.504 100.606 268.672 101.315 267.949C102.038 267.213 102.904 266.64 103.913 266.231C104.922 265.808 106.061 265.597 107.33 265.597C108.721 265.597 109.941 265.863 110.992 266.395C112.055 266.926 112.942 267.656 113.651 268.583C114.36 269.511 114.892 270.582 115.247 271.795C115.601 273.009 115.779 274.305 115.779 275.682C115.779 277.128 115.54 278.471 115.063 279.712C114.599 280.954 113.924 282.038 113.037 282.965C112.164 283.893 111.114 284.615 109.887 285.134C108.659 285.652 107.282 285.911 105.754 285.911C104.172 285.911 102.733 285.625 101.438 285.052C100.156 284.465 99.0511 283.647 98.1237 282.597C97.1962 281.547 96.4802 280.299 95.9756 278.853C95.4846 277.408 95.2391 275.825 95.2391 274.107V271.816C95.2391 269.415 95.5869 267.22 96.2825 265.228C96.9917 263.224 98.0077 261.492 99.3307 260.032C100.654 258.559 102.249 257.42 104.118 256.616C105.986 255.811 108.093 255.409 110.439 255.409ZM119.829 282.658C119.829 281.785 120.129 281.056 120.729 280.469C121.343 279.883 122.155 279.59 123.164 279.59C124.173 279.59 124.978 279.883 125.578 280.469C126.192 281.056 126.498 281.785 126.498 282.658C126.498 283.531 126.192 284.261 125.578 284.847C124.978 285.434 124.173 285.727 123.164 285.727C122.155 285.727 121.343 285.434 120.729 284.847C120.129 284.261 119.829 283.531 119.829 282.658ZM151.825 280.899V285.502H131.449V281.574L141.085 271.243C142.053 270.166 142.817 269.218 143.376 268.399C143.935 267.567 144.337 266.824 144.583 266.169C144.842 265.501 144.972 264.867 144.972 264.267C144.972 263.367 144.822 262.596 144.522 261.955C144.222 261.301 143.778 260.796 143.192 260.441C142.619 260.087 141.91 259.909 141.064 259.909C140.164 259.909 139.387 260.128 138.732 260.564C138.091 261.001 137.6 261.607 137.259 262.385C136.932 263.162 136.768 264.042 136.768 265.024H130.856C130.856 263.251 131.279 261.628 132.124 260.155C132.97 258.668 134.163 257.489 135.704 256.616C137.245 255.729 139.073 255.286 141.187 255.286C143.274 255.286 145.033 255.627 146.465 256.309C147.911 256.977 149.002 257.946 149.738 259.214C150.488 260.469 150.863 261.969 150.863 263.715C150.863 264.697 150.707 265.658 150.393 266.599C150.079 267.527 149.629 268.454 149.043 269.381C148.47 270.295 147.774 271.223 146.956 272.164C146.138 273.105 145.231 274.08 144.235 275.089L139.059 280.899H151.825ZM158.924 255.716H164.12L171.771 277.585L179.422 255.716H184.619L173.858 285.502H169.684L158.924 255.716ZM156.121 255.716H161.297L162.238 277.032V285.502H156.121V255.716ZM182.245 255.716H187.442V285.502H181.304V277.032L182.245 255.716ZM211.725 268.911V274.046H191.308V268.911H211.725ZM204.319 260.83V282.515H198.734V260.83H204.319Z" fill="#0F0F0F"/>
<path d="M101.479 297.337V312.232H98.4203V297.337H101.479ZM106.062 297.337V299.741H93.9087V297.337H106.062ZM119.761 304.437V305.143C119.761 306.275 119.607 307.291 119.3 308.191C118.993 309.092 118.56 309.859 118.001 310.493C117.442 311.121 116.773 311.602 115.996 311.936C115.225 312.27 114.369 312.437 113.428 312.437C112.494 312.437 111.638 312.27 110.86 311.936C110.09 311.602 109.421 311.121 108.855 310.493C108.289 309.859 107.849 309.092 107.536 308.191C107.229 307.291 107.075 306.275 107.075 305.143V304.437C107.075 303.298 107.229 302.282 107.536 301.388C107.842 300.488 108.275 299.721 108.835 299.086C109.401 298.452 110.069 297.968 110.84 297.634C111.617 297.3 112.473 297.132 113.408 297.132C114.349 297.132 115.205 297.3 115.976 297.634C116.753 297.968 117.421 298.452 117.981 299.086C118.547 299.721 118.983 300.488 119.29 301.388C119.604 302.282 119.761 303.298 119.761 304.437ZM116.661 305.143V304.416C116.661 303.625 116.589 302.93 116.446 302.329C116.303 301.729 116.091 301.225 115.812 300.815C115.532 300.406 115.191 300.099 114.789 299.895C114.386 299.683 113.926 299.578 113.408 299.578C112.889 299.578 112.429 299.683 112.027 299.895C111.631 300.099 111.293 300.406 111.014 300.815C110.741 301.225 110.533 301.729 110.39 302.329C110.247 302.93 110.175 303.625 110.175 304.416V305.143C110.175 305.927 110.247 306.623 110.39 307.23C110.533 307.83 110.744 308.338 111.024 308.754C111.304 309.163 111.645 309.474 112.047 309.685C112.449 309.896 112.91 310.002 113.428 310.002C113.947 310.002 114.407 309.896 114.809 309.685C115.212 309.474 115.549 309.163 115.822 308.754C116.095 308.338 116.303 307.83 116.446 307.23C116.589 306.623 116.661 305.927 116.661 305.143ZM127.935 297.337V312.232H124.876V297.337H127.935ZM132.518 297.337V299.741H120.364V297.337H132.518ZM139.219 299.884L135.168 312.232H131.904L137.439 297.337H139.516L139.219 299.884ZM142.585 312.232L138.523 299.884L138.196 297.337H140.293L145.858 312.232H142.585ZM142.4 306.688V309.092H134.533V306.688H142.4ZM156.815 309.839V312.232H149.316V309.839H156.815ZM150.309 297.337V312.232H147.239V297.337H150.309ZM169.163 309.122L172.672 297.337H176.089L170.902 312.232H168.652L169.163 309.122ZM165.93 297.337L169.429 309.122L169.961 312.232H167.69L162.534 297.337H165.93ZM189.573 304.437V305.143C189.573 306.275 189.419 307.291 189.112 308.191C188.805 309.092 188.372 309.859 187.813 310.493C187.254 311.121 186.585 311.602 185.808 311.936C185.037 312.27 184.181 312.437 183.24 312.437C182.306 312.437 181.45 312.27 180.672 311.936C179.901 311.602 179.233 311.121 178.667 310.493C178.101 309.859 177.661 309.092 177.347 308.191C177.04 307.291 176.887 306.275 176.887 305.143V304.437C176.887 303.298 177.04 302.282 177.347 301.388C177.654 300.488 178.087 299.721 178.647 299.086C179.213 298.452 179.881 297.968 180.652 297.634C181.429 297.3 182.285 297.132 183.22 297.132C184.161 297.132 185.017 297.3 185.787 297.634C186.565 297.968 187.233 298.452 187.792 299.086C188.359 299.721 188.795 300.488 189.102 301.388C189.416 302.282 189.573 303.298 189.573 304.437ZM186.473 305.143V304.416C186.473 303.625 186.401 302.93 186.258 302.329C186.115 301.729 185.903 301.225 185.624 300.815C185.344 300.406 185.003 300.099 184.601 299.895C184.198 299.683 183.738 299.578 183.22 299.578C182.701 299.578 182.241 299.683 181.838 299.895C181.443 300.099 181.105 300.406 180.826 300.815C180.553 301.225 180.345 301.729 180.202 302.329C180.058 302.93 179.987 303.625 179.987 304.416V305.143C179.987 305.927 180.058 306.623 180.202 307.23C180.345 307.83 180.556 308.338 180.836 308.754C181.115 309.163 181.456 309.474 181.859 309.685C182.261 309.896 182.722 310.002 183.24 310.002C183.758 310.002 184.219 309.896 184.621 309.685C185.023 309.474 185.361 309.163 185.634 308.754C185.907 308.338 186.115 307.83 186.258 307.23C186.401 306.623 186.473 305.927 186.473 305.143ZM201.358 309.839V312.232H193.859V309.839H201.358ZM194.851 297.337V312.232H191.782V297.337H194.851ZM210.995 297.337H214.054V307.179C214.054 308.324 213.808 309.289 213.317 310.074C212.833 310.858 212.161 311.448 211.302 311.844C210.449 312.239 209.467 312.437 208.355 312.437C207.244 312.437 206.255 312.239 205.389 311.844C204.529 311.448 203.854 310.858 203.363 310.074C202.879 309.289 202.637 308.324 202.637 307.179V297.337H205.706V307.179C205.706 307.847 205.811 308.393 206.023 308.815C206.234 309.238 206.538 309.549 206.933 309.746C207.336 309.944 207.81 310.043 208.355 310.043C208.915 310.043 209.389 309.944 209.777 309.746C210.173 309.549 210.473 309.238 210.678 308.815C210.889 308.393 210.995 307.847 210.995 307.179V297.337ZM217.982 297.337H220.581L224.407 308.273L228.233 297.337H230.831L225.45 312.232H223.363L217.982 297.337ZM216.581 297.337H219.169L219.639 307.997V312.232H216.581V297.337ZM229.645 297.337H232.243V312.232H229.174V307.997L229.645 297.337ZM244.929 309.839V312.232H237V309.839H244.929ZM238.003 297.337V312.232H234.934V297.337H238.003ZM243.896 303.404V305.736H237V303.404H243.896ZM244.919 297.337V299.741H237V297.337H244.919Z" fill="#6B6B6B"/>
<path d="M15.2755 302.947L23.5679 301.201L34.9154 286.144H42.1167L53.0278 273.269L61.9748 254.502V316.477H0L15.2755 302.947Z" fill="#42A5F5"/>
<path d="M13.0896 264.3L7.44587 281.502H2.89957L10.6098 260.751H13.5029L13.0896 264.3ZM17.7784 281.502L12.1204 264.3L11.6644 260.751H14.586L22.3389 281.502H17.7784ZM17.5218 273.778V277.127H6.56226V273.778H17.5218ZM31.7736 260.751V281.502H27.5123V260.751H31.7736ZM38.1583 260.751V264.101H21.2273V260.751H38.1583Z" fill="#42A5F5"/>
</svg>
